# Blender v3.1.2 OBJ File: ''
# www.blender.org
mtllib 20Surface.mtl
o Solid
v 0.850651 0.447557 -0.275837
v 0.000000 0.999999 0.001243
v 0.525731 0.446314 0.724162
v 0.525731 -0.446314 -0.724162
v 0.000000 0.448325 -0.893871
v 0.850651 -0.447557 0.275837
v -0.000000 -0.448325 0.893871
v -0.000000 -0.999999 -0.001243
v -0.850651 0.447557 -0.275837
v -0.525731 0.446314 0.724162
v -0.525731 -0.446314 -0.724162
v -0.850651 -0.447557 0.275837
vt 0.499976 0.925615
vt 0.031259 0.115332
vt 0.968733 0.115254
vt 0.499909 0.925649
vt 0.968650 0.115332
vt 0.031465 0.115439
vt 0.968687 0.115277
vt 0.499932 0.925733
vt 0.031357 0.115245
vt 0.031351 0.115363
vt 0.968736 0.115279
vt 0.499934 0.925655
vt 0.031406 0.115451
vt 0.968669 0.115350
vt 0.499944 0.925699
vt 0.031383 0.115413
vt 0.968656 0.115316
vt 0.499993 0.925604
vt 0.968663 0.115297
vt 0.499969 0.925699
vt 0.031322 0.115362
vt 0.031395 0.115383
vt 0.968660 0.115306
vt 0.499934 0.925622
vt 0.968708 0.115298
vt 0.499938 0.925662
vt 0.031373 0.115397
vt 0.499895 0.925729
vt 0.031332 0.115598
vt 0.500030 0.925794
vt 0.031354 0.115509
vt 0.031331 0.115492
vt 0.499866 0.925737
vt 0.968661 0.115344
vt 0.031317 0.115360
vt 0.031365 0.115415
vt 0.968644 0.115344
vt 0.499932 0.925760
vt 0.031272 0.115413
vt 0.968611 0.115320
vt 0.499914 0.925610
vt 0.031352 0.115544
vt 0.968669 0.115323
vt 0.968736 0.115255
vt 0.499950 0.925543
vt 0.031530 0.115406
vt 0.968647 0.115318
vt 0.499952 0.925740
vt 0.500062 0.925737
vt 0.031365 0.115371
vt 0.031291 0.115274
vn 0.5774 0.7944 0.1886
vn 0.5774 0.1886 -0.7944
vn 0.5774 -0.1886 0.7944
vn 0.5774 -0.7944 -0.1886
vn -0.5774 0.7944 0.1886
vn -0.5774 0.1886 -0.7944
vn -0.5774 -0.1886 0.7944
vn -0.5774 -0.7944 -0.1886
vn 0.3568 0.7953 -0.4901
vn -0.3568 0.7953 -0.4901
vn 0.3568 -0.7953 0.4901
vn -0.3568 -0.7953 0.4901
vn 0.9342 0.1872 0.3038
vn 0.9342 -0.1872 -0.3038
vn -0.9342 0.1872 0.3038
vn -0.9342 -0.1872 -0.3038
vn 0.0000 0.7939 0.6080
vn 0.0000 0.1864 0.9825
vn 0.0000 -0.1864 -0.9825
vn 0.0000 -0.7939 -0.6080
usemtl マテリアル
s 1
f 1/1/1 2/2/1 3/3/1
f 1/4/2 4/5/2 5/6/2
f 6/7/3 3/8/3 7/9/3
f 6/10/4 8/11/4 4/12/4
f 9/13/5 10/14/5 2/15/5
f 9/16/6 5/17/6 11/18/6
f 12/19/7 7/20/7 10/21/7
f 12/22/8 11/23/8 8/24/8
f 1/25/9 5/26/9 2/27/9
f 9/28/10 2/29/10 5/17/10
f 6/7/11 7/30/11 8/31/11
f 12/32/12 8/33/12 7/34/12
f 3/8/13 6/35/13 1/25/13
f 4/12/14 1/36/14 6/37/14
f 10/38/15 9/39/15 12/40/15
f 11/41/16 12/42/16 9/43/16
f 2/27/17 10/44/17 3/45/17
f 7/46/18 3/47/18 10/48/18
f 5/17/19 4/49/19 11/50/19
f 8/51/20 11/23/20 4/12/20
