# Blender v3.0.1 OBJ File: ''
# www.blender.org
mtllib Player.mtl
o å††éŒ
v 0.977363 -0.000000 -1.000000
v 0.977363 -0.195090 -0.980785
v 0.912339 -0.279818 -0.660310
v 0.911577 -0.398481 -0.596359
v 0.911577 -0.507161 -0.507161
v 0.911577 -0.596359 -0.398481
v 0.911577 -0.557817 -0.274475
v 0.911577 -0.598633 -0.139927
v 0.911577 -0.612416 0.000000
v 0.911577 -0.598633 0.139927
v 0.911577 -0.557817 0.274475
v 0.911577 -0.596359 0.398481
v 0.911577 -0.507161 0.507161
v 0.911577 -0.398481 0.596359
v 0.912339 -0.279818 0.660310
v 0.977363 -0.195090 0.980785
v 0.977363 0.000000 1.000000
v 0.977363 0.195090 0.980785
v 0.985930 0.194538 0.462190
v 0.981696 0.300456 0.403069
v 0.977363 0.275612 0.354524
v 0.977363 0.337964 0.278548
v 0.977363 0.384296 0.191867
v 0.977363 0.495402 0.097813
v 0.977363 0.505035 0.000000
v 0.977363 0.495402 -0.097813
v 0.977363 0.384296 -0.191867
v 0.977363 0.337964 -0.278548
v 0.977363 0.275612 -0.354524
v 0.981696 0.300456 -0.403069
v 0.985930 0.194538 -0.462190
v 0.977363 0.195090 -0.980785
v 2.977364 0.000000 0.000000
v -1.707048 -0.000000 -0.381770
v -1.707048 -0.074480 -0.374434
v -1.707048 -0.146097 -0.352709
v -1.707048 -0.212100 -0.317430
v -1.707048 -0.269952 -0.269952
v -1.707048 -0.317430 -0.212100
v -1.707048 -0.352710 -0.146097
v -1.707048 -0.374434 -0.074480
v -1.707048 -0.381770 0.000000
v -1.707048 -0.374434 0.074480
v -1.707048 -0.352710 0.146097
v -1.707048 -0.317430 0.212100
v -1.707048 -0.269952 0.269952
v -1.707048 -0.212100 0.317430
v -1.707048 -0.146097 0.352709
v -1.707048 -0.074480 0.374434
v -1.707048 -0.000000 0.381770
v -1.707048 0.074479 0.374434
v -1.707048 0.146097 0.352709
v -1.707048 0.212100 0.317430
v -1.707048 0.269952 0.269952
v -1.707048 0.317430 0.212100
v -1.707048 0.352709 0.146097
v -1.707048 0.374434 0.074480
v -1.707048 0.381770 0.000000
v -1.707048 0.374434 -0.074480
v -1.707048 0.352709 -0.146097
v -1.707048 0.317430 -0.212100
v -1.707048 0.269952 -0.269952
v -1.707048 0.212100 -0.317430
v -1.707048 0.146097 -0.352709
v -1.707048 0.074479 -0.374434
v -0.205895 0.354524 -0.354524
v -0.205895 0.416876 -0.278548
v -0.205895 -0.604859 0.000000
v -0.205895 -0.591226 -0.138457
v -0.205895 -0.120635 0.966263
v -0.205895 -0.382684 0.923880
v -0.205895 0.463208 0.191867
v -0.205895 0.416876 0.278548
v -0.205895 -0.382684 -0.923880
v -0.205895 -0.120635 -0.966263
v -0.203721 0.308862 -0.398157
v -0.205895 -0.591226 0.138457
v -1.929127 0.061244 2.796222
v -0.205895 0.491739 0.097813
v -0.205895 -0.394281 -0.590086
v -0.201686 0.138433 -0.441509
v -0.205895 -0.550844 0.271587
v -1.929127 0.130632 2.789388
v -0.205895 0.501372 0.000000
v -0.205895 -0.501828 -0.501828
v -1.929127 0.130632 -2.789388
v -0.205895 -0.590086 0.394281
v -0.201686 0.138433 0.441509
v -0.205895 0.491739 -0.097813
v -0.205895 -0.590086 -0.394281
v -1.929127 0.061244 -2.796222
v -0.205895 -0.501828 0.501828
v -0.203721 0.308862 0.398157
v -0.205895 0.463208 -0.191867
v -0.205895 -0.550844 -0.271587
v -0.205895 -0.394281 0.590086
v -0.205895 0.354524 0.354524
v -0.848282 0.354524 -0.354524
v -0.760763 -0.618370 0.000000
v -0.848282 -0.120635 0.966263
v -0.848282 0.463208 0.191867
v -0.848282 -0.382684 -0.923880
v -0.848282 0.317424 -0.393388
v -0.760763 -0.604472 0.141088
v -2.571515 0.061244 2.796222
v -0.848282 0.491739 0.097813
v -0.760763 -0.401786 -0.601311
v -0.848282 0.156576 -0.435320
v -0.760763 -0.563319 0.276761
v -2.571515 0.130632 2.789388
v -0.848282 0.501372 0.000000
v -0.760763 -0.511379 -0.511379
v -2.571515 0.130632 -2.789388
v -0.760763 -0.601311 0.401786
v -0.848282 0.156576 0.435320
v -0.848282 0.491739 -0.097813
v -0.760763 -0.601311 -0.401786
v -2.571515 0.061244 -2.796222
v -0.760763 -0.511379 0.511379
v -0.848282 0.317424 0.393388
v -0.848282 0.463208 -0.191867
v -0.760763 -0.563319 -0.276761
v -0.760763 -0.401786 0.601311
v -0.848282 0.354524 0.354524
v -0.848282 0.416876 -0.278548
v -0.760763 -0.604472 -0.141088
v -0.848282 -0.382684 0.923880
v -0.848282 0.416876 0.278548
v -0.848282 -0.120635 -0.966263
v -2.085245 -0.000000 -0.549998
v -2.085245 -0.107299 -0.539430
v -2.085245 -0.210475 -0.508132
v -2.085245 -0.305563 -0.457307
v -2.085245 -0.388908 -0.388907
v -2.085245 -0.457307 -0.305563
v -2.085245 -0.508132 -0.210475
v -2.085245 -0.539430 -0.107299
v -2.085245 -0.549998 0.000000
v -2.085245 -0.539430 0.107299
v -2.085245 -0.508132 0.210475
v -2.085245 -0.457307 0.305563
v -2.085245 -0.388908 0.388907
v -2.085245 -0.305563 0.457307
v -2.085245 -0.210475 0.508132
v -2.085245 -0.107299 0.539430
v -2.085245 -0.000000 0.549998
v -2.085245 0.107299 0.539430
v -2.085245 0.210475 0.508132
v -2.085245 0.305562 0.457307
v -2.085245 0.388907 0.388907
v -2.085245 0.457306 0.305563
v -2.085245 0.508132 0.210475
v -2.085245 0.539430 0.107299
v -2.085245 0.549998 0.000000
v -2.085245 0.539430 -0.107299
v -2.085245 0.508132 -0.210475
v -2.085245 0.457306 -0.305563
v -2.085245 0.388907 -0.388907
v -2.085245 0.305562 -0.457307
v -2.085245 0.210475 -0.508132
v -2.085245 0.107299 -0.539430
vt 0.250000 0.490000
vt 0.250000 0.250000
vt 0.296822 0.485388
vt 0.341844 0.471731
vt 0.383337 0.449553
vt 0.419706 0.419706
vt 0.449553 0.383337
vt 0.471731 0.341844
vt 0.485388 0.296822
vt 0.490000 0.250000
vt 0.485388 0.203178
vt 0.471731 0.158156
vt 0.449553 0.116663
vt 0.419706 0.080294
vt 0.383337 0.050447
vt 0.341844 0.028269
vt 0.296822 0.014612
vt 0.250000 0.010000
vt 0.203178 0.014612
vt 0.158156 0.028269
vt 0.116663 0.050447
vt 0.080294 0.080294
vt 0.050447 0.116663
vt 0.028269 0.158156
vt 0.014612 0.203178
vt 0.010000 0.250000
vt 0.014612 0.296822
vt 0.028269 0.341844
vt 0.050447 0.383337
vt 0.080294 0.419706
vt 0.116663 0.449553
vt 0.158156 0.471731
vt 0.080294 0.419706
vt 0.050447 0.383337
vt 0.050447 0.383337
vt 0.203178 0.485388
vt 0.471731 0.158156
vt 0.485388 0.203178
vt 0.485388 0.203178
vt 0.490000 0.250000
vt 0.485388 0.296822
vt 0.485388 0.296822
vt 0.296822 0.014612
vt 0.341844 0.028269
vt 0.341844 0.028269
vt 0.050447 0.116663
vt 0.028269 0.158156
vt 0.050447 0.116663
vt 0.296822 0.485388
vt 0.341844 0.471731
vt 0.296822 0.485388
vt 0.116663 0.449553
vt 0.080294 0.419706
vt 0.490000 0.250000
vt 0.250000 0.010000
vt 0.296822 0.014612
vt 0.014612 0.203178
vt 0.028269 0.158156
vt 0.383337 0.449553
vt 0.341844 0.471731
vt 0.158156 0.471731
vt 0.116663 0.449553
vt 0.485388 0.203178
vt 0.203178 0.014612
vt 0.250000 0.010000
vt 0.010000 0.250000
vt 0.014612 0.203178
vt 0.419706 0.419706
vt 0.383337 0.449553
vt 0.203178 0.485388
vt 0.158156 0.471731
vt 0.471731 0.158156
vt 0.449553 0.116663
vt 0.158156 0.028269
vt 0.203178 0.014612
vt 0.014612 0.296822
vt 0.010000 0.250000
vt 0.449553 0.383337
vt 0.419706 0.419706
vt 0.203178 0.485388
vt 0.250000 0.490000
vt 0.449553 0.116663
vt 0.419706 0.080294
vt 0.116663 0.050447
vt 0.158156 0.028269
vt 0.028269 0.341844
vt 0.014612 0.296822
vt 0.471731 0.341844
vt 0.449553 0.383337
vt 0.383337 0.050447
vt 0.419706 0.080294
vt 0.116663 0.050447
vt 0.080294 0.080294
vt 0.028269 0.341844
vt 0.471731 0.341844
vt 0.250000 0.490000
vt 0.383337 0.050447
vt 0.080294 0.080294
vt 0.080294 0.080294
vt 0.383337 0.050447
vt 0.296822 0.485388
vt 0.250000 0.490000
vt 0.485388 0.296822
vt 0.471731 0.341844
vt 0.050447 0.383337
vt 0.028269 0.341844
vt 0.116663 0.050447
vt 0.419706 0.080294
vt 0.449553 0.383337
vt 0.014612 0.296822
vt 0.158156 0.028269
vt 0.449553 0.116663
vt 0.203178 0.485388
vt 0.419706 0.419706
vt 0.010000 0.250000
vt 0.203178 0.014612
vt 0.471731 0.158156
vt 0.158156 0.471731
vt 0.383337 0.449553
vt 0.014612 0.203178
vt 0.250000 0.010000
vt 0.485388 0.203178
vt 0.116663 0.449553
vt 0.341844 0.471731
vt 0.028269 0.158156
vt 0.296822 0.014612
vt 0.490000 0.250000
vt 0.080294 0.419706
vt 0.050447 0.116663
vt 0.341844 0.028269
vt 0.796822 0.014612
vt 0.514612 0.203178
vt 0.703178 0.485388
vt 0.014612 0.203178
vt 0.449553 0.116663
vt 0.471731 0.158156
vt 0.010000 0.250000
vt 0.014612 0.296822
vt 0.383337 0.050447
vt 0.419706 0.080294
vt 0.028269 0.341844
vt 0.341844 0.028269
vt 0.250000 0.490000
vt 0.050447 0.383337
vt 0.341844 0.471731
vt 0.296822 0.485388
vt 0.080294 0.419706
vt 0.250000 0.010000
vt 0.296822 0.014612
vt 0.158156 0.471731
vt 0.116663 0.449553
vt 0.383337 0.449553
vt 0.158156 0.028269
vt 0.203178 0.014612
vt 0.449553 0.383337
vt 0.419706 0.419706
vt 0.203178 0.485388
vt 0.080294 0.080294
vt 0.116663 0.050447
vt 0.485388 0.296822
vt 0.471731 0.341844
vt 0.050447 0.116663
vt 0.028269 0.158156
vt 0.490000 0.250000
vt 0.750000 0.490000
vt 0.796822 0.485388
vt 0.841844 0.471731
vt 0.883337 0.449553
vt 0.919706 0.419706
vt 0.985388 0.296822
vt 0.949553 0.383337
vt 0.971731 0.341844
vt 0.990000 0.250000
vt 0.985388 0.203178
vt 0.971731 0.158156
vt 0.949553 0.116663
vt 0.919706 0.080294
vt 0.883337 0.050447
vt 0.841844 0.028269
vt 0.750000 0.010000
vt 0.703178 0.014612
vt 0.658156 0.028269
vt 0.616663 0.050447
vt 0.580294 0.080294
vt 0.550447 0.116663
vt 0.528269 0.158156
vt 0.510000 0.250000
vt 0.550447 0.383337
vt 0.514612 0.296822
vt 0.528269 0.341844
vt 0.580294 0.419706
vt 0.616663 0.449553
vt 0.658156 0.471731
vn 0.4455 -0.0878 -0.8910
vn 0.1977 -0.9569 -0.2129
vn 0.3267 -0.4500 -0.8311
vn 0.3266 -0.5996 -0.7306
vn 0.3266 -0.7306 -0.5996
vn 0.2134 -0.9329 0.2900
vn 0.2847 -0.9173 -0.2783
vn 0.2830 -0.9545 -0.0940
vn 0.2830 -0.9545 0.0940
vn 0.2847 -0.9173 0.2783
vn 0.2134 -0.9329 -0.2900
vn 0.3266 -0.7306 0.5996
vn 0.3266 -0.5996 0.7306
vn 0.3267 -0.4500 0.8311
vn 0.1977 -0.9569 0.2129
vn 0.4455 -0.0878 0.8910
vn 0.4455 0.0878 0.8910
vn 0.0974 0.9952 0.0005
vn 0.2426 0.4802 0.8429
vn 0.0412 0.8879 -0.4581
vn 0.2139 0.7551 0.6197
vn 0.2099 0.8623 0.4609
vn 0.1936 0.6339 0.7488
vn 0.2437 0.9652 0.0951
vn 0.2437 0.9652 -0.0951
vn 0.1936 0.6339 -0.7488
vn 0.2099 0.8623 -0.4609
vn 0.2139 0.7551 -0.6197
vn 0.0412 0.8879 0.4581
vn 0.2426 0.4802 -0.8429
vn -0.1373 0.7657 -0.6284
vn 0.0974 0.9952 -0.0005
vn 0.4455 0.0878 -0.8910
vn 0.4048 -0.8750 0.2654
vn -0.2415 -0.9657 -0.0951
vn -0.5738 -0.1308 0.8085
vn -0.1373 0.8736 0.4669
vn -0.5595 -0.2406 -0.7931
vn -0.1379 0.7164 -0.6839
vn -0.2415 -0.9657 0.0951
vn -0.5685 -0.0806 0.8187
vn -0.1373 0.9479 0.2875
vn -0.2577 -0.9661 0.0127
vn -0.1157 0.2506 -0.9612
vn -0.2453 -0.9277 0.2814
vn -0.9412 -0.0331 -0.3362
vn -0.1373 0.9858 0.0971
vn -0.3379 -0.5971 -0.7275
vn -0.0952 0.2890 -0.9526
vn -0.2529 -0.8533 0.4561
vn -0.0911 0.9943 -0.0557
vn -0.1373 0.9858 -0.0971
vn -0.3379 -0.7276 -0.5970
vn -0.9412 -0.0331 0.3362
vn -0.3379 -0.7275 0.5971
vn -0.0902 0.4695 0.8783
vn -0.1373 0.9479 -0.2875
vn -0.2230 -0.9327 0.2834
vn -0.3379 -0.5970 0.7276
vn -0.1446 0.6277 0.7649
vn -0.1373 0.8736 -0.4669
vn -0.2453 -0.9277 -0.2814
vn -0.1258 -0.9919 0.0199
vn -0.3379 -0.4437 0.8300
vn -0.1373 0.7657 0.6284
vn 0.0515 0.7720 0.6336
vn -0.0067 -0.4744 0.8803
vn 0.0944 -0.9780 -0.1861
vn -0.0067 -0.9569 -0.2903
vn 0.0587 0.8804 -0.4706
vn 0.0082 0.8899 -0.4561
vn -0.0067 -0.6344 0.7730
vn -0.0042 -0.9549 0.2968
vn -0.0030 0.9569 -0.2903
vn -0.0382 0.4859 0.8732
vn -0.0067 -0.7730 0.6344
vn 0.5252 0.0834 -0.8469
vn -0.0067 -0.7730 -0.6344
vn -0.0031 0.9952 -0.0980
vn -0.0371 0.9990 -0.0239
vn -0.0052 -0.9525 -0.3046
vn -0.0472 0.9989 0.0018
vn -0.0067 -0.6344 -0.7730
vn -0.0031 0.9952 0.0980
vn 0.5252 0.0834 0.8469
vn -0.0067 -0.9569 0.2903
vn -0.0023 0.2465 -0.9691
vn 0.0996 -0.9944 -0.0346
vn 0.0430 0.6455 0.7625
vn -0.0184 -0.0980 0.9950
vn -0.0067 -0.9952 0.0980
vn 0.0461 0.6913 -0.7211
vn -0.0638 -0.9615 -0.2672
vn 0.0587 0.8804 0.4706
vn 0.2401 -0.1550 0.9583
vn -0.0067 -0.9952 -0.0980
vn 0.0515 0.7720 -0.6336
vn -0.0000 0.7730 0.6344
vn 0.0142 -0.9993 0.0347
vn 0.0000 -0.9951 -0.0989
vn 0.0242 -0.9567 -0.2902
vn -0.0000 0.8819 -0.4714
vn 0.0038 0.6910 0.7229
vn 0.0242 -0.6342 0.7728
vn 0.0154 -0.9567 0.2907
vn -0.0000 0.9569 -0.2903
vn -0.0024 0.2465 0.9691
vn 0.0242 -0.7728 0.6342
vn -0.0000 0.0980 -0.9952
vn 0.0242 -0.7728 -0.6342
vn 0.0000 0.9952 -0.0980
vn 0.0000 0.9999 0.0110
vn 0.0186 -0.9523 -0.3046
vn 0.0278 0.9993 -0.0238
vn 0.0242 -0.6342 -0.7728
vn -0.0000 0.9952 0.0980
vn 0.0000 0.0980 0.9952
vn 0.0242 -0.9567 0.2902
vn -0.0038 0.2523 -0.9677
vn 0.0000 -0.9983 -0.0591
vn -0.0000 0.9569 0.2903
vn 0.0000 -0.9951 0.0989
vn 0.0242 -0.9949 0.0980
vn -0.0000 0.7233 -0.6905
vn 0.0000 -0.1597 -0.9872
vn 0.0000 0.8819 0.4714
vn -0.0000 -0.1597 0.9872
vn 0.0242 -0.9949 -0.0980
vn 0.0000 0.7730 -0.6344
vn -1.0000 0.0000 -0.0000
vn 0.4048 0.9100 0.0896
vn 0.4048 -0.8064 0.4311
vn 0.4048 0.9100 -0.0896
vn 0.4048 -0.7068 0.5801
vn 0.4048 0.8750 -0.2654
vn 0.4048 -0.5801 0.7068
vn 0.4048 0.8064 -0.4311
vn 0.4048 -0.4310 0.8064
vn 0.4048 -0.0896 -0.9100
vn 0.4048 0.7068 -0.5801
vn 0.4048 -0.2654 0.8750
vn 0.4048 -0.2654 -0.8750
vn 0.4048 0.5801 -0.7069
vn 0.4048 -0.0896 0.9100
vn 0.4048 -0.4311 -0.8064
vn 0.4048 0.4311 -0.8064
vn 0.4048 0.0896 0.9100
vn 0.4048 -0.5801 -0.7068
vn 0.4048 0.2654 -0.8750
vn 0.4048 0.2654 0.8750
vn 0.4048 -0.7068 -0.5801
vn 0.4048 0.0896 -0.9100
vn 0.4048 0.4311 0.8064
vn 0.4048 -0.8064 -0.4310
vn 0.4048 0.5801 0.7068
vn 0.4048 -0.8750 -0.2654
vn 0.4048 0.7068 0.5801
vn 0.4048 -0.9100 -0.0896
vn 0.4048 0.8064 0.4310
vn 0.4048 -0.9100 0.0896
vn 0.4048 0.8750 0.2654
vn -0.5595 -0.2406 0.7931
vn -0.5738 -0.1308 -0.8085
vn -0.1446 0.6277 -0.7649
vn -0.1258 -0.9919 -0.0199
vn -0.3379 -0.4437 -0.8300
vn -0.0902 0.4695 -0.8783
vn -0.3379 -0.5970 -0.7276
vn -0.0911 0.9943 0.0557
vn -0.2230 -0.9327 -0.2834
vn -0.0952 0.2890 0.9526
vn -0.3379 -0.7275 -0.5971
vn -0.3379 -0.7276 0.5970
vn -0.1157 0.2506 0.9612
vn -0.2529 -0.8533 -0.4561
vn -0.3379 -0.5971 0.7275
vn -0.1379 0.7164 0.6839
vn -0.5685 -0.0806 -0.8187
vn -0.2577 -0.9661 -0.0127
vn 0.0996 -0.9944 0.0346
vn -0.0184 -0.0980 -0.9950
vn 0.0461 0.6913 0.7211
vn -0.0052 -0.9525 0.3046
vn 0.0430 0.6455 -0.7625
vn -0.0023 0.2465 0.9691
vn -0.0472 0.9989 -0.0018
vn -0.0042 -0.9549 -0.2968
vn -0.0371 0.9990 0.0239
vn -0.0382 0.4859 -0.8732
vn -0.0067 -0.4744 -0.8803
vn -0.0030 0.9569 0.2903
vn 0.0944 -0.9780 0.1861
vn 0.0082 0.8899 0.4561
vn 0.2401 -0.1550 -0.9583
vn -0.0638 -0.9615 0.2672
vn -0.0000 -0.9983 0.0591
vn -0.0000 0.7233 0.6905
vn 0.0186 -0.9523 0.3046
vn -0.0038 0.2523 0.9677
vn 0.0278 0.9993 0.0238
vn 0.0154 -0.9567 -0.2907
vn 0.0000 0.9999 -0.0110
vn -0.0024 0.2465 -0.9691
vn 0.0142 -0.9993 -0.0347
vn 0.0038 0.6910 -0.7229
vn 0.4048 -0.8064 0.4310
vn 0.4048 0.8064 -0.4310
vn 0.4048 -0.4311 0.8064
vn 0.4048 0.5801 -0.7068
vn 0.4048 -0.4310 -0.8064
vn 0.4048 -0.8064 -0.4311
vn 0.4048 0.5801 0.7069
vn 0.4048 0.8064 0.4311
usemtl None
s off
f 1/1/1 33/2/1 2/3/1
f 2/3/2 33/2/2 3/4/2
f 3/4/3 33/2/3 4/5/3
f 4/5/4 33/2/4 5/6/4
f 5/6/5 33/2/5 6/7/5
f 6/7/6 33/2/6 7/8/6
f 7/8/7 33/2/7 8/9/7
f 8/9/8 33/2/8 9/10/8
f 9/10/9 33/2/9 10/11/9
f 10/11/10 33/2/10 11/12/10
f 11/12/11 33/2/11 12/13/11
f 12/13/12 33/2/12 13/14/12
f 13/14/13 33/2/13 14/15/13
f 14/15/14 33/2/14 15/16/14
f 15/16/15 33/2/15 16/17/15
f 16/17/16 33/2/16 17/18/16
f 17/18/17 33/2/17 18/19/17
f 18/19/18 33/2/18 19/20/18
f 19/20/19 33/2/19 20/21/19
f 20/21/20 33/2/20 21/22/20
f 21/22/21 33/2/21 22/23/21
f 22/23/22 33/2/22 23/24/22
f 23/24/23 33/2/23 24/25/23
f 24/25/24 33/2/24 25/26/24
f 25/26/25 33/2/25 26/27/25
f 26/27/26 33/2/26 27/28/26
f 27/28/27 33/2/27 28/29/27
f 28/29/28 33/2/28 29/30/28
f 29/30/29 33/2/29 30/31/29
f 30/31/30 33/2/30 31/32/30
f 98/33/31 61/34/31 125/35/31
f 31/32/32 33/2/32 32/36/32
f 32/36/33 33/2/33 1/1/33
f 44/37/34 139/38/34 43/39/34
f 99/40/35 41/41/35 126/42/35
f 100/43/36 48/44/36 127/45/36
f 128/46/37 56/47/37 55/48/37
f 129/49/38 36/50/38 35/51/38
f 103/52/39 62/53/39 98/33/39
f 99/40/40 43/39/40 42/54/40
f 100/43/41 50/55/41 49/56/41
f 106/57/42 56/47/42 101/58/42
f 107/59/43 36/50/43 102/60/43
f 108/61/44 63/62/44 103/52/44
f 104/63/45 44/37/45 43/39/45
f 110/64/46 50/55/46 105/65/46
f 106/57/47 58/66/47 57/67/47
f 107/59/48 38/68/48 37/69/48
f 108/61/49 65/70/49 64/71/49
f 109/72/50 45/73/50 44/37/50
f 115/74/51 51/75/51 110/64/51
f 116/76/52 58/66/52 111/77/52
f 117/78/53 38/68/53 112/79/53
f 113/80/54 34/81/54 65/70/54
f 114/82/55 46/83/55 45/73/55
f 115/74/56 53/84/56 52/85/56
f 116/76/57 60/86/57 59/87/57
f 122/88/58 39/89/58 117/78/58
f 123/90/59 46/83/59 119/91/59
f 120/92/60 54/93/60 53/84/60
f 125/35/61 60/86/61 121/94/61
f 126/42/62 40/95/62 122/88/62
f 129/49/63 34/81/63 118/96/63
f 123/90/64 48/44/64 47/97/64
f 128/46/65 54/93/65 124/98/65
f 22/23/66 97/99/66 21/22/66
f 15/16/67 96/100/67 14/15/67
f 1/1/68 75/101/68 91/102/68
f 7/8/69 69/103/69 95/104/69
f 27/28/70 67/105/70 94/106/70
f 21/22/71 93/107/71 20/21/71
f 14/15/72 92/108/72 13/14/72
f 7/8/73 90/109/73 6/7/73
f 26/27/74 94/106/74 89/110/74
f 20/21/75 88/111/75 19/20/75
f 12/13/76 92/108/76 87/112/76
f 1/1/77 86/113/77 32/36/77
f 6/7/78 85/114/78 5/6/78
f 26/27/79 84/115/79 25/26/79
f 18/19/80 88/111/80 83/116/80
f 11/12/81 87/112/81 82/117/81
f 32/36/82 81/118/82 31/32/82
f 4/5/83 85/114/83 80/119/83
f 24/25/84 84/115/84 79/120/84
f 17/18/85 83/116/85 78/121/85
f 11/12/86 77/122/86 10/11/86
f 30/31/87 81/118/87 76/123/87
f 3/4/88 80/119/88 74/124/88
f 24/25/89 72/125/89 23/24/89
f 17/18/90 70/126/90 16/17/90
f 10/11/91 68/127/91 9/10/91
f 29/30/92 76/123/92 66/128/92
f 3/4/93 75/101/93 2/3/93
f 23/24/94 73/129/94 22/23/94
f 15/16/95 70/126/95 71/130/95
f 8/9/96 68/127/96 69/103/96
f 28/29/97 66/128/97 67/105/97
f 73/129/98 124/98/98 97/99/98
f 71/130/99 123/90/99 96/100/99
f 91/102/100 129/49/100 118/96/100
f 95/104/101 126/42/101 122/88/101
f 67/105/102 121/94/102 94/106/102
f 97/99/103 120/92/103 93/107/103
f 92/108/104 123/90/104 119/91/104
f 90/109/105 122/88/105 117/78/105
f 94/106/106 116/76/106 89/110/106
f 93/107/107 115/74/107 88/111/107
f 92/108/108 114/82/108 87/112/108
f 86/113/109 118/96/109 113/80/109
f 85/114/110 117/78/110 112/79/110
f 89/110/111 111/77/111 84/115/111
f 83/116/112 115/74/112 110/64/112
f 87/112/113 109/72/113 82/117/113
f 86/113/114 108/61/114 81/118/114
f 85/114/115 107/59/115 80/119/115
f 84/115/116 106/57/116 79/120/116
f 83/116/117 105/65/117 78/121/117
f 82/117/118 104/63/118 77/122/118
f 76/123/119 108/61/119 103/52/119
f 74/124/120 107/59/120 102/60/120
f 79/120/121 101/58/121 72/125/121
f 78/121/122 100/43/122 70/126/122
f 68/127/123 104/63/123 99/40/123
f 66/128/124 103/52/124 98/33/124
f 74/124/125 129/49/125 75/101/125
f 72/125/126 128/46/126 73/129/126
f 70/126/127 127/45/127 71/130/127
f 68/127/128 126/42/128 69/103/128
f 66/128/129 125/35/129 67/105/129
f 145/131/130 153/132/130 161/133/130
f 58/66/131 153/134/131 57/67/131
f 44/37/132 141/135/132 140/136/132
f 59/87/133 154/137/133 58/66/133
f 46/83/134 141/135/134 45/73/134
f 60/86/135 155/138/135 59/87/135
f 46/83/136 143/139/136 142/140/136
f 61/34/137 156/141/137 60/86/137
f 47/97/138 144/142/138 143/139/138
f 35/51/139 130/143/139 34/81/139
f 62/53/140 157/144/140 61/34/140
f 49/56/141 144/142/141 48/44/141
f 35/51/142 132/145/142 131/146/142
f 63/62/143 158/147/143 62/53/143
f 49/56/144 146/148/144 145/149/144
f 37/69/145 132/145/145 36/50/145
f 63/62/146 160/150/146 159/151/146
f 51/75/147 146/148/147 50/55/147
f 38/68/148 133/152/148 37/69/148
f 65/70/149 160/150/149 64/71/149
f 51/75/150 148/153/150 147/154/150
f 38/68/151 135/155/151 134/156/151
f 65/70/152 130/143/152 161/157/152
f 53/84/153 148/153/153 52/85/153
f 40/95/154 135/155/154 39/89/154
f 53/84/155 150/158/155 149/159/155
f 40/95/156 137/160/156 136/161/156
f 54/93/157 151/162/157 150/158/157
f 42/54/158 137/160/158 41/41/158
f 55/48/159 152/163/159 151/162/159
f 42/54/160 139/38/160 138/164/160
f 56/47/161 153/134/161 152/163/161
f 98/33/31 62/53/31 61/34/31
f 44/37/34 140/136/34 139/38/34
f 99/40/35 42/54/35 41/41/35
f 100/43/162 49/56/162 48/44/162
f 128/46/37 101/58/37 56/47/37
f 129/49/163 102/60/163 36/50/163
f 103/52/164 63/62/164 62/53/164
f 99/40/40 104/63/40 43/39/40
f 100/43/165 105/65/165 50/55/165
f 106/57/42 57/67/42 56/47/42
f 107/59/166 37/69/166 36/50/166
f 108/61/167 64/71/167 63/62/167
f 104/63/45 109/72/45 44/37/45
f 110/64/46 51/75/46 50/55/46
f 106/57/47 111/77/47 58/66/47
f 107/59/168 112/79/168 38/68/168
f 108/61/169 113/80/169 65/70/169
f 109/72/170 114/82/170 45/73/170
f 115/74/171 52/85/171 51/75/171
f 116/76/52 59/87/52 58/66/52
f 117/78/172 39/89/172 38/68/172
f 113/80/54 118/96/54 34/81/54
f 114/82/173 119/91/173 46/83/173
f 115/74/174 120/92/174 53/84/174
f 116/76/57 121/94/57 60/86/57
f 122/88/175 40/95/175 39/89/175
f 123/90/176 47/97/176 46/83/176
f 120/92/177 124/98/177 54/93/177
f 125/35/61 61/34/61 60/86/61
f 126/42/62 41/41/62 40/95/62
f 129/49/178 35/51/178 34/81/178
f 123/90/179 127/45/179 48/44/179
f 128/46/65 55/48/65 54/93/65
f 22/23/66 73/129/66 97/99/66
f 15/16/180 71/130/180 96/100/180
f 1/1/181 2/3/181 75/101/181
f 7/8/69 8/9/69 69/103/69
f 27/28/70 28/29/70 67/105/70
f 21/22/182 97/99/182 93/107/182
f 14/15/72 96/100/72 92/108/72
f 7/8/183 95/104/183 90/109/183
f 26/27/184 27/28/184 94/106/184
f 20/21/185 93/107/185 88/111/185
f 12/13/76 13/14/76 92/108/76
f 1/1/77 91/102/77 86/113/77
f 6/7/78 90/109/78 85/114/78
f 26/27/79 89/110/79 84/115/79
f 18/19/186 19/20/186 88/111/186
f 11/12/187 12/13/187 87/112/187
f 32/36/188 86/113/188 81/118/188
f 4/5/83 5/6/83 85/114/83
f 24/25/84 25/26/84 84/115/84
f 17/18/85 18/19/85 83/116/85
f 11/12/86 82/117/86 77/122/86
f 30/31/189 31/32/189 81/118/189
f 3/4/190 4/5/190 80/119/190
f 24/25/191 79/120/191 72/125/191
f 17/18/192 78/121/192 70/126/192
f 10/11/91 77/122/91 68/127/91
f 29/30/193 30/31/193 76/123/193
f 3/4/194 74/124/194 75/101/194
f 23/24/94 72/125/94 73/129/94
f 15/16/195 16/17/195 70/126/195
f 8/9/96 9/10/96 68/127/96
f 28/29/97 29/30/97 66/128/97
f 73/129/98 128/46/98 124/98/98
f 71/130/196 127/45/196 123/90/196
f 91/102/100 75/101/100 129/49/100
f 95/104/101 69/103/101 126/42/101
f 67/105/102 125/35/102 121/94/102
f 97/99/197 124/98/197 120/92/197
f 92/108/104 96/100/104 123/90/104
f 90/109/198 95/104/198 122/88/198
f 94/106/106 121/94/106 116/76/106
f 93/107/199 120/92/199 115/74/199
f 92/108/108 119/91/108 114/82/108
f 86/113/109 91/102/109 118/96/109
f 85/114/110 90/109/110 117/78/110
f 89/110/111 116/76/111 111/77/111
f 83/116/200 88/111/200 115/74/200
f 87/112/201 114/82/201 109/72/201
f 86/113/202 113/80/202 108/61/202
f 85/114/115 112/79/115 107/59/115
f 84/115/116 111/77/116 106/57/116
f 83/116/117 110/64/117 105/65/117
f 82/117/118 109/72/118 104/63/118
f 76/123/203 81/118/203 108/61/203
f 74/124/204 80/119/204 107/59/204
f 79/120/121 106/57/121 101/58/121
f 78/121/122 105/65/122 100/43/122
f 68/127/123 77/122/123 104/63/123
f 66/128/205 76/123/205 103/52/205
f 74/124/125 102/60/125 129/49/125
f 72/125/126 101/58/126 128/46/126
f 70/126/127 100/43/127 127/45/127
f 68/127/128 99/40/128 126/42/128
f 66/128/129 98/33/129 125/35/129
f 161/133/130 130/165/130 131/166/130
f 131/166/130 132/167/130 161/133/130
f 132/167/130 133/168/130 161/133/130
f 133/168/130 134/169/130 137/170/130
f 134/169/130 135/171/130 137/170/130
f 135/171/130 136/172/130 137/170/130
f 137/170/130 138/173/130 139/174/130
f 139/174/130 140/175/130 141/176/130
f 141/176/130 142/177/130 143/178/130
f 143/178/130 144/179/130 141/176/130
f 144/179/130 145/131/130 141/176/130
f 145/131/130 146/180/130 147/181/130
f 147/181/130 148/182/130 145/131/130
f 148/182/130 149/183/130 145/131/130
f 149/183/130 150/184/130 151/185/130
f 151/185/130 152/186/130 149/183/130
f 152/186/130 153/132/130 149/183/130
f 153/132/130 154/187/130 157/188/130
f 154/187/130 155/189/130 157/188/130
f 155/189/130 156/190/130 157/188/130
f 157/188/130 158/191/130 159/192/130
f 159/192/130 160/193/130 157/188/130
f 160/193/130 161/133/130 157/188/130
f 137/170/130 139/174/130 145/131/130
f 139/174/130 141/176/130 145/131/130
f 161/133/130 133/168/130 137/170/130
f 145/131/130 149/183/130 153/132/130
f 153/132/130 157/188/130 161/133/130
f 161/133/130 137/170/130 145/131/130
f 58/66/131 154/137/131 153/134/131
f 44/37/206 45/73/206 141/135/206
f 59/87/133 155/138/133 154/137/133
f 46/83/134 142/140/134 141/135/134
f 60/86/135 156/141/135 155/138/135
f 46/83/136 47/97/136 143/139/136
f 61/34/207 157/144/207 156/141/207
f 47/97/208 48/44/208 144/142/208
f 35/51/139 131/146/139 130/143/139
f 62/53/140 158/147/140 157/144/140
f 49/56/141 145/149/141 144/142/141
f 35/51/142 36/50/142 132/145/142
f 63/62/209 159/151/209 158/147/209
f 49/56/144 50/55/144 146/148/144
f 37/69/210 133/152/210 132/145/210
f 63/62/146 64/71/146 160/150/146
f 51/75/147 147/154/147 146/148/147
f 38/68/148 134/156/148 133/152/148
f 65/70/149 161/157/149 160/150/149
f 51/75/150 52/85/150 148/153/150
f 38/68/151 39/89/151 135/155/151
f 65/70/152 34/81/152 130/143/152
f 53/84/153 149/159/153 148/153/153
f 40/95/211 136/161/211 135/155/211
f 53/84/212 54/93/212 150/158/212
f 40/95/156 41/41/156 137/160/156
f 54/93/157 55/48/157 151/162/157
f 42/54/158 138/164/158 137/160/158
f 55/48/213 56/47/213 152/163/213
f 42/54/160 43/39/160 139/38/160
f 56/47/161 57/67/161 153/134/161
